<svg xmlns="http://www.w3.org/2000/svg" viewBox="0 0 40 46" fill="none"><path fill-rule="evenodd" clip-rule="evenodd" d="M19.352 0.951L20.511 0.951L38.58 11.383C38.938 11.59 39.159 11.972 39.159 12.386V33.25C39.159 33.664 38.938 34.047 38.58 34.254L20.511 44.686C20.153 44.893 19.711 44.893 19.352 44.686L1.284 34.254C0.925 34.047 0.704 33.664 0.704 33.25V12.386C0.704 11.972 0.925 11.59 1.284 11.383L10.22 6.224L19.352 0.951ZM9.647 9.231L3.022 13.056V32.581L9.732 36.455L9.647 9.231ZM13.216 38.466L19.932 42.343L36.841 32.581V24.826L13.216 38.466ZM36.841 20.818V13.056L19.932 3.293L13.124 7.224L36.841 20.818ZM11.965 9.231L12.05 36.462L35.676 22.822L11.965 9.231Z" fill="currentColor"/></svg>